<svg xmlns="http://www.w3.org/2000/svg" width="44" height="43" viewBox="0 0 44 43" fill="none"><g clip-path="url(#clip0_793_2878)"><path d="M43.1335 21.0208L36.3506 4.78629L29.8059 7.52078C29.888 6.74888 29.888 5.65673 29.4692 4.8684C28.5331 3.11931 26.3488 2.45416 24.5997 3.3903C22.8506 4.32643 22.1855 6.51074 23.1216 8.25983C23.4501 8.87571 23.9428 9.37663 24.5504 9.7133L17.5541 12.6285C17.398 12.1358 17.1599 11.6677 16.8561 11.2489C16.9464 11.1996 17.0203 11.1421 17.0942 11.0682C17.2667 10.8958 17.3734 10.6659 17.3734 10.4195L17.3406 7.70965H17.899C18.0303 7.70965 18.1535 7.65217 18.2439 7.56184C18.3424 7.47151 18.3917 7.34012 18.3917 7.20874L18.2931 0.0152893L17.3077 0.0317127L17.398 6.72425L4.23469 6.82279L4.14437 0.0152893L3.15896 0.0317127L3.24929 7.33191C3.2575 7.6029 3.47101 7.80819 3.74199 7.8164H4.31681C4.31681 7.84104 4.34966 10.5263 4.34966 10.5263C4.35787 10.8219 4.50568 11.0929 4.74382 11.2653L4.38251 11.8401C4.24291 12.0619 4.05404 12.612 4.05404 12.612H4.04583L2.60878 17.9743L2.98652 19.1403L2.45276 19.3785C1.96005 19.6002 1.56589 20.0026 1.37702 20.5117C1.18815 21.0208 1.20458 21.5792 1.42629 22.0719L8.72649 38.3803L15.5668 35.3174C15.8132 35.2106 15.9856 34.9807 16.0103 34.7097C16.0349 34.4387 15.9117 34.176 15.69 34.0281C14.8114 33.4123 14.2037 32.7471 14.023 32.2051C13.5632 30.842 14.294 29.3557 15.6654 28.8958C17.0285 28.436 18.5148 29.1668 18.9747 30.5382C19.1964 31.1869 19.1471 31.9013 18.8433 32.5172C18.7119 32.78 18.7612 33.092 18.9665 33.2973C19.1636 33.5108 19.4756 33.5765 19.7384 33.4533L25.4209 30.9077C25.6919 30.7927 25.9218 30.5957 26.086 30.3493L26.9483 29.9962C27.0468 30.8092 27.3506 31.5811 27.8351 32.2462C27.7448 32.2955 27.6709 32.3612 27.597 32.4351C27.4163 32.6075 27.3178 32.8457 27.3178 33.092L27.3588 35.7937H26.8004C26.6691 35.7937 26.5459 35.8511 26.4556 35.9415C26.357 36.0318 26.3077 36.1632 26.316 36.2946L26.4063 42.4944H27.3917L27.3014 36.7873L40.4647 36.6805L40.555 42.5026H41.5404L41.4501 36.1878C41.4419 35.9168 41.2284 35.7033 40.9574 35.6951H40.3826C40.3826 35.6787 40.3908 35.6541 40.3908 35.6376L40.3497 32.9935C40.3497 32.6978 40.2019 32.4187 39.9556 32.2544C40.1445 31.9506 40.2923 31.7207 40.3169 31.6714C40.4565 31.4579 40.5632 31.2197 40.6289 30.9652L40.6454 30.9077H40.6536L42.0906 25.5372L41.5651 23.8785L42.0414 23.6814C43.076 23.2544 43.5687 22.0801 43.1417 21.0455C43.1417 21.0372 43.1335 21.029 43.1335 21.0208ZM8.73471 16.5701L8.65259 16.7097C8.09419 17.6951 7.08415 18.1303 7.07594 18.1303L6.71463 18.2781C6.71463 18.2781 7.28123 21.7024 7.43726 22.696C7.52759 23.2872 7.42083 23.8949 7.12521 24.4122C6.91171 24.7161 6.56682 24.8967 6.19729 24.8967C5.94273 24.8885 5.83598 24.7571 5.79492 24.6832L4.19364 19.6823L3.8898 18.738L3.63524 17.9496L5.02302 12.7845C5.06408 12.6367 5.12977 12.4971 5.21189 12.3657C5.21189 12.3657 5.46645 11.9551 5.75386 11.5117L15.7393 11.4296C16.1663 11.8812 16.4783 12.4314 16.6508 13.0308L8.73471 16.5701ZM16.2074 10.4524H16.1909V10.4359L5.54035 10.5181C5.46645 10.5263 5.40076 10.5016 5.34327 10.4606V10.362L5.31043 7.8821C5.36791 7.84925 5.4336 7.82461 5.4993 7.82461L16.1663 7.7425C16.2402 7.73429 16.3059 7.75892 16.3634 7.79998L16.4044 10.3949C16.347 10.4277 16.273 10.4524 16.2074 10.4524ZM25.0185 30.0044L19.9847 32.2626C20.4692 30.3329 19.3032 28.3785 17.3734 27.894C15.4437 27.4095 13.4893 28.5756 13.0048 30.5053C12.8323 31.1705 12.8652 31.8767 13.0787 32.5254C13.3579 33.3384 14.1052 34.061 14.7867 34.5865L9.21098 37.0829L2.31316 21.6695C2.19819 21.415 2.18998 21.1276 2.29673 20.8648C2.39527 20.602 2.59236 20.3967 2.84692 20.2818L3.28214 20.0847L4.89163 25.102C5.13798 25.5701 5.61426 25.8739 6.14802 25.8821C6.14802 25.8821 7.42905 25.9068 7.95459 24.9296V24.9132C8.36518 24.1905 8.5212 23.3529 8.38981 22.5318C8.26664 21.7434 7.92996 19.6823 7.79036 18.8529C8.4473 18.4916 9.00569 17.9661 9.41628 17.342L17.7512 13.6056C17.7512 13.6056 17.9811 13.4743 18.1617 13.5153C18.2685 13.5564 18.367 13.6796 18.4163 13.7863L20.9948 19.6823C21.1015 19.9533 21.3725 20.1175 21.6599 20.1011C21.9473 20.0847 22.1937 19.8876 22.284 19.6166C22.5057 18.8693 23.0477 18.2699 23.7703 17.9743C25.0513 17.3995 26.5623 17.9661 27.1371 19.2471C27.6709 20.4296 27.2357 21.8173 26.1189 22.4825C25.4045 22.8849 24.1563 22.7863 23.6554 22.7288C23.3926 22.696 23.1298 22.811 22.9656 23.0245C22.9656 23.0327 22.7274 23.3037 22.8835 23.7717L25.3223 29.2079C25.4127 29.4132 25.3798 29.6595 25.2402 29.832C25.191 29.9059 25.1088 29.9716 25.0185 30.0044ZM39.3643 33.1331L39.4054 35.613C39.3479 35.6541 39.2822 35.6787 39.2083 35.6705L28.5413 35.7526C28.4674 35.7608 28.4017 35.7362 28.3442 35.6951L28.3032 33.1413L39.3643 33.1331ZM39.6764 30.7106C39.6353 30.8584 39.5696 30.998 39.4875 31.1294V31.1458C39.4875 31.1458 39.2412 31.5482 38.9538 31.9916L38.8552 32.1477H29.0422L28.9601 32.0655C28.3278 31.3922 27.9501 30.5135 27.9008 29.5856L35.0121 26.6212C34.8561 26.9004 34.7083 27.196 34.5687 27.4916L35.4638 27.9104C35.6444 27.5245 35.8415 27.1467 36.0468 26.7854C36.2521 26.4241 36.5313 26.1121 36.8516 25.8493C37.0897 25.6522 37.3443 25.4962 37.6235 25.3648L37.9848 25.217L37.9273 24.831C37.9191 24.8228 37.8944 24.6422 37.8452 24.3712C37.6974 23.4843 37.3853 21.5628 37.2621 20.8073C37.1718 20.2161 37.2786 19.6084 37.5742 19.0911C37.7877 18.7872 38.1326 18.5984 38.5021 18.5984C38.7567 18.6066 38.8634 18.738 38.9045 18.8201L40.3497 23.3201L40.6536 24.2644L41.0642 25.5537L39.6764 30.7106ZM42.2302 22.2033C42.1235 22.4579 41.9182 22.6632 41.6636 22.7699L41.2612 22.9424L39.7996 18.3931C39.5532 17.925 39.0769 17.6294 38.5514 17.613C37.2868 17.6458 36.7366 18.5737 36.7366 18.5737C36.326 19.2964 36.17 20.134 36.3014 20.9551C36.4246 21.7517 36.7612 23.8046 36.9008 24.634C36.712 24.7407 36.5313 24.8639 36.3589 24.9953L26.3406 29.1832C26.316 29.0519 24.0331 23.9113 24.0331 23.9113C24.8461 23.9688 25.7822 23.9278 26.4802 23.5582L26.7922 23.3694C27.17 23.1148 27.4984 22.7945 27.753 22.4168L27.8598 22.2526C28.0486 21.9405 28.1882 21.6038 28.2785 21.2507C28.2868 21.2343 28.2868 21.2179 28.2868 21.2015H28.295C28.3853 20.8812 28.4264 20.5527 28.4264 20.2161C28.4264 19.8548 28.3689 19.4852 28.2621 19.1403C27.6709 17.2434 25.6508 16.1923 23.7539 16.7836C22.8424 17.071 22.0787 17.7115 21.6353 18.5655L21.0523 17.2599C20.8634 16.7918 19.607 14.0327 19.3278 13.3921C19.2621 13.269 19.1882 13.1458 19.0979 13.039L25.5933 10.362C25.8643 10.2471 26.0285 9.97608 26.0121 9.68867C26.0039 9.40126 25.8068 9.15491 25.5358 9.07279C24.1563 8.654 23.3762 7.20053 23.795 5.81275C23.836 5.68136 23.8853 5.55819 23.9428 5.43501C24.263 4.76165 24.8543 4.25253 25.5769 4.05545C26.7594 3.71877 28.0158 4.24431 28.5988 5.32826C28.9848 6.05089 28.8534 7.29085 28.7795 7.79177C28.7466 8.06275 28.8534 8.32553 29.0669 8.48976C29.2804 8.654 29.5596 8.69506 29.8059 8.5883L35.8169 6.07552L42.222 21.3986C42.337 21.6531 42.337 21.9487 42.2302 22.2033Z" fill="#0D4C39"></path><path d="M12.2725 38.6025L11.3969 39.0544L12.5342 41.2581L13.4098 40.8062L12.2725 38.6025Z" fill="#0D4C39"></path><path d="M5.42624 38.6422L4.28894 40.8458L5.16457 41.2977L6.30187 39.0941L5.42624 38.6422Z" fill="#0D4C39"></path><path d="M8.36766 40.0535L8.30707 42.5327L9.29218 42.5568L9.35277 40.0776L8.36766 40.0535Z" fill="#0D4C39"></path><path d="M33.1066 1.40616L32.2309 1.85806L33.3682 4.06173L34.2439 3.60982L33.1066 1.40616Z" fill="#0D4C39"></path><path d="M40.4786 1.43922L39.3413 3.64288L40.2169 4.09479L41.3542 1.89112L40.4786 1.43922Z" fill="#0D4C39"></path><path d="M36.294 0.121854L36.2335 2.60104L37.2186 2.62512L37.2792 0.145929L36.294 0.121854Z" fill="#0D4C39"></path></g><defs><clipPath id="clip0_793_2878"><rect width="42.5694" height="42.5694" fill="white" transform="translate(0.983154 0.0152893)"></rect></clipPath></defs></svg>