<svg xmlns="http://www.w3.org/2000/svg" width="29" height="41" viewBox="0 0 29 41" fill="none"><path d="M25.7127 13.9543C25.0293 13.955 24.3742 14.2268 23.8909 14.71C23.4077 15.1932 23.136 15.8484 23.1352 16.5317V21.1608C22.7413 21.1451 22.349 21.2195 21.9882 21.3784C21.6274 21.5373 21.3076 21.7765 21.0533 22.0777L17.1054 26.785C16.7124 27.2553 16.4176 27.7996 16.2383 28.3857C16.059 28.9718 15.9989 29.5878 16.0614 30.1975L16.6497 35.8476H15.9929C15.8385 35.8476 15.6905 35.9089 15.5814 36.0181C15.4722 36.1272 15.4109 36.2753 15.4109 36.4296V39.4228C15.4109 39.5771 15.4722 39.7252 15.5814 39.8343C15.6905 39.9435 15.8385 40.0048 15.9929 40.0048H26.183C26.3373 40.0047 26.4853 39.9434 26.5944 39.8342C26.7035 39.7251 26.7649 39.5771 26.765 39.4228V36.4296C26.7649 36.2753 26.7035 36.1273 26.5944 36.0182C26.4853 35.9091 26.3373 35.8477 26.183 35.8476H25.425L25.5694 32.3992C25.5897 31.9043 25.7176 31.4198 25.9442 30.9794L27.7843 27.4125C28.1155 26.7637 28.2888 26.0458 28.2901 25.3173V16.5317C28.2893 15.8484 28.0175 15.1933 27.5343 14.7101C27.0512 14.2269 26.396 13.9551 25.7127 13.9543ZM25.6009 38.8408H16.5749V37.0116H25.6009V38.8408ZM27.1261 25.3183C27.1251 25.8618 26.9958 26.3974 26.7487 26.8814L24.9112 30.4456C24.6071 31.0368 24.4353 31.6871 24.4077 32.3513L24.2613 35.8476H17.8197L17.2191 30.0775C17.1722 29.6228 17.2169 29.1634 17.3505 28.7263C17.4842 28.2892 17.704 27.8834 17.997 27.5326L21.9446 22.8274C22.1322 22.6051 22.3836 22.4459 22.6647 22.3714C22.9458 22.2968 23.243 22.3105 23.516 22.4106C23.5185 22.4108 23.5209 22.4108 23.5234 22.4106C23.7355 22.4895 23.9256 22.6182 24.0776 22.7859C24.2296 22.9535 24.3391 23.1553 24.3969 23.3741C24.4547 23.5929 24.4591 23.8224 24.4097 24.0433C24.3603 24.2641 24.2585 24.4699 24.113 24.6432L21.8811 27.3038C21.7819 27.4221 21.7337 27.5749 21.7472 27.7287C21.7606 27.8825 21.8347 28.0247 21.9529 28.1239C22.0712 28.2232 22.2241 28.2713 22.3779 28.2579C22.5317 28.2444 22.6738 28.1704 22.7731 28.0521L25.005 25.3915C25.2488 25.1022 25.4257 24.7626 25.5232 24.397C25.6206 24.0314 25.6362 23.6488 25.5688 23.2765C25.5014 22.9042 25.3527 22.5513 25.1332 22.2431C24.9138 21.9349 24.629 21.6789 24.2993 21.4934V16.5317C24.2993 16.1569 24.4482 15.7974 24.7132 15.5323C24.9783 15.2672 25.3378 15.1183 25.7127 15.1183C26.0876 15.1183 26.4471 15.2672 26.7121 15.5323C26.9772 15.7974 27.1261 16.1569 27.1261 16.5317V25.3183Z" fill="#0D4C39"></path><path d="M12.9439 35.8476H12.287L12.8753 30.1982C12.938 29.5884 12.8779 28.9722 12.6986 28.386C12.5193 27.7998 12.2244 27.2554 11.8314 26.785L7.88341 22.0774C7.62908 21.7761 7.30927 21.5369 6.9484 21.378C6.58753 21.2192 6.19513 21.1449 5.80116 21.1608V16.5317C5.80116 16.1933 5.7345 15.8581 5.60497 15.5454C5.47544 15.2327 5.28559 14.9485 5.04625 14.7092C4.80691 14.4699 4.52277 14.28 4.21006 14.1505C3.89735 14.021 3.56219 13.9543 3.22372 13.9543C2.88524 13.9543 2.55008 14.021 2.23737 14.1505C1.92466 14.28 1.64053 14.4699 1.40119 14.7092C1.16185 14.9485 0.971997 15.2327 0.842468 15.5454C0.712939 15.8581 0.646271 16.1933 0.646271 16.5317V25.3183C0.647946 26.0469 0.821604 26.7648 1.15311 27.4135L2.99457 30.9797C3.22092 31.4204 3.34881 31.9049 3.36939 32.3998L3.51372 35.8476H2.75545C2.60112 35.8477 2.45314 35.9091 2.34401 36.0182C2.23488 36.1273 2.17354 36.2753 2.17345 36.4296V39.4228C2.17354 39.5771 2.23488 39.7251 2.34401 39.8342C2.45314 39.9434 2.60112 40.0047 2.75545 40.0048H12.9455C13.0999 40.0048 13.2479 39.9435 13.3571 39.8343C13.4662 39.7252 13.5275 39.5771 13.5275 39.4228V36.4296C13.5275 36.3531 13.5124 36.2772 13.4831 36.2065C13.4537 36.1358 13.4107 36.0716 13.3565 36.0175C13.3022 35.9634 13.2379 35.9206 13.1671 35.8914C13.0963 35.8623 13.0204 35.8474 12.9439 35.8476ZM4.52974 32.3519C4.50173 31.6876 4.3297 31.0373 4.02555 30.446L2.18908 26.8824C1.94161 26.3985 1.81194 25.8629 1.81061 25.3193V16.5317C1.81061 16.1569 1.95953 15.7974 2.2246 15.5323C2.48967 15.2672 2.84918 15.1183 3.22405 15.1183C3.59892 15.1183 3.95843 15.2672 4.2235 15.5323C4.48857 15.7974 4.63749 16.1569 4.63749 16.5317V21.4934C4.50093 21.5703 4.37158 21.6593 4.25104 21.7595C3.72737 22.1989 3.39969 22.8283 3.34006 23.5093C3.28044 24.1903 3.49376 24.8671 3.9331 25.3908L6.165 28.0514C6.26423 28.1697 6.40638 28.2437 6.56019 28.2572C6.71399 28.2707 6.86685 28.2225 6.98513 28.1233C7.10341 28.024 7.17743 27.8819 7.1909 27.7281C7.20437 27.5743 7.15619 27.4214 7.05696 27.3031L4.82373 24.6432C4.67833 24.4699 4.57666 24.2642 4.52725 24.0435C4.47784 23.8227 4.48214 23.5933 4.53978 23.3746C4.59742 23.1558 4.70673 22.9541 4.85852 22.7864C5.0103 22.6186 5.20013 22.4898 5.41205 22.4106C5.41449 22.4108 5.41693 22.4108 5.41937 22.4106C5.69262 22.3104 5.99006 22.2967 6.27139 22.3712C6.55272 22.4458 6.80433 22.605 6.99211 22.8274L10.9398 27.5333C11.2327 27.884 11.4524 28.2897 11.586 28.7267C11.7196 29.1637 11.7644 29.6229 11.7177 30.0775L11.117 35.8476H4.67673L4.52974 32.3519ZM12.3618 38.8408H3.3358V37.0116H12.3618V38.8408Z" fill="#0D4C39"></path><path d="M22.575 2.68568C22.1517 2.05705 21.5835 1.53935 20.9183 1.17617C20.2531 0.812986 19.5104 0.614965 18.7527 0.598782C17.171 0.549336 15.6328 1.12171 14.4682 2.19314C13.3031 1.12182 11.7645 0.5499 10.1826 0.600112C9.42524 0.616102 8.6828 0.813874 8.01784 1.17677C7.35288 1.53966 6.78487 2.05705 6.36167 2.68535C3.80085 6.43579 6.77306 12.2405 14.1153 17.8334C14.2167 17.9107 14.3407 17.9525 14.4682 17.9525C14.5956 17.9525 14.7196 17.9107 14.821 17.8334C22.1632 12.2405 25.1345 6.43578 22.575 2.68568ZM14.4682 16.6362C8.02021 11.6176 5.21828 6.42614 7.32347 3.34119C7.6436 2.8628 8.0751 2.46929 8.58089 2.19448C9.08667 1.91966 9.65161 1.77175 10.2272 1.76346C10.282 1.76113 10.3373 1.76013 10.3935 1.76013C11.0802 1.76059 11.7588 1.90845 12.3835 2.19372C13.0082 2.47899 13.5644 2.89501 14.0145 3.41369C14.071 3.47869 14.1408 3.5308 14.2192 3.56652C14.2976 3.60223 14.3827 3.62072 14.4688 3.62072C14.5549 3.62072 14.6401 3.60223 14.7184 3.56652C14.7968 3.5308 14.8666 3.47869 14.9231 3.41369C15.3924 2.87519 15.9754 2.44766 16.63 2.16199C17.2846 1.87631 17.9946 1.73962 18.7085 1.76179C19.2843 1.7704 19.8495 1.91865 20.3554 2.1938C20.8614 2.46896 21.293 2.86281 21.6132 3.34152C23.7177 6.42514 20.9161 11.6176 14.4682 16.6362Z" fill="#0D4C39"></path><path d="M18.7433 10.5358C18.6841 10.4874 18.6159 10.4512 18.5427 10.4292C18.4695 10.4071 18.3927 10.3998 18.3166 10.4075C18.2406 10.4152 18.1668 10.4379 18.0995 10.4742C18.0322 10.5104 17.9727 10.5596 17.9245 10.6189C17.568 11.0553 17.1705 11.5026 16.7425 11.9492C16.6388 12.0611 16.5831 12.2092 16.5874 12.3617C16.5918 12.5142 16.6559 12.6589 16.7659 12.7646C16.8759 12.8704 17.023 12.9287 17.1756 12.927C17.3281 12.9253 17.4739 12.8638 17.5816 12.7557C18.0316 12.2874 18.4503 11.8165 18.8261 11.3559C18.8746 11.2966 18.9109 11.2284 18.933 11.1551C18.955 11.0818 18.9625 11.0048 18.9548 10.9287C18.9471 10.8525 18.9244 10.7786 18.8881 10.7112C18.8519 10.6437 18.8026 10.5841 18.7433 10.5358Z" fill="#0D4C39"></path></svg>