<svg xmlns="http://www.w3.org/2000/svg" width="44" height="43" viewBox="0 0 44 43" fill="none"><g clip-path="url(#clip0_793_2910)"><path d="M1.58934 21.4204L4.982 22.7588C5.43031 22.9356 5.91911 22.8422 6.26873 22.5492L8.95542 24.2436L9.4162 24.5675C8.8317 25.4926 8.98145 26.7567 9.87016 27.5102C10.3585 27.9243 10.979 28.1009 11.5863 28.0348C11.622 28.6732 11.9123 29.2418 12.3848 29.6423C12.8492 30.0361 13.4554 30.2377 14.1009 30.1673C14.1368 30.8055 14.427 31.374 14.8995 31.7745C15.3682 32.172 15.9755 32.3693 16.6167 32.2994C16.6502 32.9006 16.9198 33.4875 17.4142 33.9067C18.3692 34.7166 19.8058 34.5992 20.6155 33.6443L21.1546 33.0115L22.0631 33.6819C23.6339 34.8414 25.854 33.8915 26.0587 31.9644C27.6782 32.5528 29.3978 31.4179 29.4227 29.6748C30.9492 29.9618 32.3038 28.8531 32.3889 27.3825C34.3689 27.9114 36.1599 25.9104 35.2856 23.9539L37.7134 22.3946C38.061 22.8064 38.6387 22.9619 39.1537 22.7587L42.5464 21.4204C43.1994 21.1628 43.5212 20.4219 43.2636 19.7687L41.713 15.8382C41.5866 15.5178 41.2243 15.3606 40.9041 15.487C40.5836 15.6134 40.4264 15.9756 40.5528 16.2959L42.1033 20.2264C42.1086 20.2397 42.1021 20.255 42.0887 20.2603L38.696 21.5986C38.6826 21.6039 38.6675 21.5974 38.6622 21.584C38.5434 21.2829 34.7353 11.6299 34.3986 10.7764C34.3974 10.7734 34.3946 10.7664 34.3989 10.7565C34.4033 10.7466 34.4103 10.7439 34.4132 10.7426L37.806 9.40417C37.8089 9.40292 37.8158 9.40018 37.8259 9.4045C37.8357 9.40883 37.8385 9.41581 37.8397 9.4188L39.4836 13.5854C39.61 13.9059 39.9722 14.063 40.2925 13.9366C40.6129 13.8103 40.7701 13.4481 40.6437 13.1277L38.9999 8.96118C38.7424 8.30818 38.0014 7.98641 37.3484 8.24407L33.9556 9.58251C33.3494 9.82163 33.0294 10.4721 33.192 11.0888L31.3733 11.7601C30.8073 11.9691 30.1929 12.0297 29.5966 11.9351L27.7581 11.6437C27.4181 11.5899 27.0985 11.822 27.0447 12.162C26.9908 12.5021 27.2227 12.8216 27.5629 12.8755L29.4014 13.1669C30.2081 13.2947 31.0392 13.2128 31.8052 12.93L33.6404 12.2526C33.8396 12.7576 36.9832 20.7259 37.1895 21.2488L34.5136 22.9674L34.4682 22.9339C34.468 22.9337 34.4678 22.9336 34.4676 22.9335C34.1809 22.7219 29.5281 19.2882 29.3098 19.127C29.1761 19.0283 29.01 18.984 28.8189 19.0164C26.2357 19.4557 23.9212 18.5371 22.2185 16.7593C21.6887 16.2061 20.8244 16.1764 20.2504 16.6918C18.5986 18.1753 16.2903 19.6219 14.6753 18.087C14.5148 17.9346 14.5136 17.6531 14.7573 17.4958C16.8146 16.1724 18.9458 14.3142 20.6609 12.5792C21.0878 12.1472 21.7017 11.9464 22.3042 12.042L24.6712 12.4172C25.0121 12.4712 25.3308 12.239 25.3847 11.899C25.4386 11.5588 25.2066 11.2393 24.8665 11.1854L22.4995 10.8102C21.5014 10.6521 20.4827 10.9856 19.774 11.7025C19.5756 11.9031 19.341 12.1361 19.0765 12.3916C18.2779 12.1085 17.4457 11.9394 16.5991 11.8918C14.1211 11.7526 13.9062 11.7264 13.3435 11.7625C12.9018 11.7907 12.4525 11.7156 12.0439 11.5447L10.9449 11.0848C11.1035 10.4717 10.784 9.82047 10.1802 9.58235L6.78754 8.24407C6.13429 7.98633 5.39348 8.30809 5.1359 8.96118L0.872231 19.7687C0.614071 20.4232 0.934589 21.1621 1.58934 21.4204ZM12.1213 26.44C11.7559 26.871 11.1079 26.9245 10.6767 26.559C10.2427 26.191 10.1935 25.5441 10.5569 25.1155L12.0993 23.3051C12.4561 22.8842 13.1058 22.8149 13.5438 23.1862C13.9759 23.5524 14.0292 24.1986 13.6627 24.6307C13.6626 24.6309 13.6625 24.631 13.6623 24.6312L12.1213 26.44ZM14.6359 28.5723C14.2696 29.0042 13.6237 29.0576 13.1914 28.6912C12.7574 28.3232 12.7082 27.6763 13.0716 27.2477L14.614 25.4374C14.997 24.9854 15.707 24.9459 16.1344 25.3897C16.1373 25.3926 16.1397 25.3959 16.1425 25.3989C16.4945 25.7733 16.5175 26.3619 16.1774 26.763L14.6359 28.5723ZM17.1505 30.7044C16.7829 31.138 16.1363 31.1881 15.7061 30.8233C15.2721 30.4554 15.2228 29.8085 15.5862 29.3799L17.1287 27.5695C17.4951 27.1375 18.1454 27.0876 18.5732 27.4506C19.0042 27.8162 19.0575 28.4641 18.6921 28.8951C18.6919 28.8953 18.6918 28.8955 18.6917 28.8956L17.1505 30.7044ZM21.2151 31.0164C21.2126 31.0195 21.2103 31.023 21.2077 31.0261C20.9589 31.3181 20.2734 32.1227 19.6652 32.8365C19.2998 33.2676 18.6518 33.3209 18.2207 32.9555C17.7896 32.59 17.7363 31.9421 18.1008 31.5121L19.6433 29.7017C20.0108 29.2682 20.658 29.2182 21.0878 29.5828C21.5106 29.9411 21.5754 30.5807 21.2151 31.0164ZM10.4967 12.2495L11.5624 12.6954C12.1472 12.9401 12.7907 13.0479 13.4232 13.0073C13.9001 12.9766 14.0593 12.9984 16.5289 13.1371C17.036 13.1657 17.5374 13.2441 18.027 13.3715C16.8069 14.4733 15.4367 15.5777 14.0642 16.459C13.1843 17.0239 13.054 18.2671 13.8161 18.9914C14.8578 19.9812 17.1874 21.1191 21.0837 17.6199C21.1535 17.5572 21.2563 17.558 21.3176 17.6221C23.2049 19.5921 25.8802 20.6925 28.7691 20.2865C29.0965 20.5166 28.4627 20.0522 33.7268 23.9372C34.2902 24.3529 34.4478 25.1705 34.0067 25.7348C33.5878 26.2709 32.8308 26.3747 32.2838 25.9709C31.5448 25.4255 32.0904 25.8406 29.4926 23.8389C29.2195 23.6287 28.8282 23.6795 28.6179 23.9523C28.4078 24.225 28.4585 24.6166 28.7312 24.8268L30.8865 26.4875C31.2579 26.9768 31.2136 27.6837 30.774 28.1222C30.3419 28.5535 29.6305 28.5942 29.1192 28.2171C28.625 27.8523 29.0356 28.1649 26.7686 26.4195C26.4957 26.2093 26.1041 26.2604 25.8941 26.5333C25.684 26.8061 25.7349 27.1977 26.0078 27.4078L27.9189 28.8792C28.2798 29.346 28.2621 30.0175 27.868 30.4643C27.444 30.945 26.6927 31.0119 26.1574 30.6169C25.2973 29.9821 25.729 30.3099 24.0726 29.0279C23.8002 28.8171 23.4086 28.867 23.1978 29.1394C22.987 29.4118 23.0369 29.8034 23.3093 30.0141L24.6342 31.0396C24.9356 31.5192 24.8765 32.1474 24.4802 32.562C24.0476 33.0145 23.3268 33.0647 22.8035 32.6785L21.9653 32.0599L22.1578 31.8338C22.5418 31.3812 22.74 30.7949 22.6893 30.1781C22.6377 29.5533 22.3408 29.0104 21.8943 28.6316C21.4297 28.2377 20.823 28.0359 20.1777 28.1059C20.1438 27.5035 19.8675 26.9132 19.3796 26.4993C18.9168 26.107 18.3293 25.9184 17.7238 25.9679C17.7036 25.9696 17.6834 25.9715 17.6633 25.9737C17.6622 25.9538 17.6615 25.9338 17.6599 25.9138C17.6202 25.4316 17.4323 24.9851 17.1234 24.6248C17.1215 24.6226 17.1198 24.6203 17.1178 24.6181C16.6265 24.0496 15.895 23.7624 15.1494 23.8426C15.1143 23.2164 14.8305 22.6422 14.3503 22.235C13.3945 21.4248 11.9581 21.543 11.1488 22.4975L10.2091 23.6006L9.65973 23.2144C9.65125 23.2085 9.6426 23.2026 9.63379 23.1971L6.86628 21.4517C8.95858 16.1483 8.17487 18.1348 10.4967 12.2495ZM2.03233 20.2265L6.29592 9.41897C6.29999 9.40866 6.3098 9.40243 6.3202 9.40243C6.32335 9.40243 6.3266 9.40301 6.32976 9.40425L9.72242 10.7427C9.7358 10.7479 9.74237 10.7631 9.73713 10.7765C9.53202 11.2964 5.60766 21.2439 5.47346 21.5841C5.46798 21.5976 5.45334 21.604 5.43971 21.5987L2.04705 20.2603C2.03358 20.255 2.02693 20.2399 2.03233 20.2265Z" fill="#0D4C39"></path></g><defs><clipPath id="clip0_793_2910"><rect width="42.5694" height="42.5694" fill="white" transform="translate(0.782928 0.0152893)"></rect></clipPath></defs></svg>