<svg xmlns="http://www.w3.org/2000/svg" width="43" height="43" viewBox="0 0 43 43" fill="none"><g clip-path="url(#clip0_793_2892)"><path d="M21.6679 16.643C19.4396 16.643 17.6266 18.4536 17.6266 20.6793C17.6266 22.905 19.4396 24.7157 21.6679 24.7157C23.8962 24.7157 25.7091 22.905 25.7091 20.6793C25.7091 18.4536 23.8962 16.643 21.6679 16.643ZM21.6679 23.4698C20.1271 23.4698 18.8738 22.2178 18.8738 20.6793C18.8738 19.1405 20.1271 17.8885 21.6679 17.8885C23.2086 17.8885 24.4619 19.1405 24.4619 20.6793C24.4619 22.2178 23.2086 23.4698 21.6679 23.4698Z" fill="#0D4C39"></path><path d="M29.0235 15.136L27.2174 13.3322C26.9979 13.113 26.65 13.0883 26.4019 13.2747L25.0414 14.2958C24.6448 14.0863 24.2298 13.9148 23.8011 13.7827L23.562 12.1C23.5185 11.7927 23.2551 11.5644 22.9446 11.5644H20.3906C20.0797 11.5644 19.8167 11.7927 19.7728 12.1L19.5338 13.7827C19.1051 13.9148 18.6903 14.0863 18.2938 14.2958L16.9333 13.2747C16.6848 13.0883 16.3373 13.113 16.1174 13.3322L14.3117 15.136C14.0921 15.3556 14.0674 15.7028 14.2539 15.9506L15.2763 17.3098C15.0668 17.7057 14.8946 18.1201 14.7625 18.5481L13.0775 18.7872C12.7699 18.8307 12.5416 19.0938 12.5416 19.4039V21.9548C12.5416 22.2649 12.7699 22.528 13.0775 22.5715L14.7625 22.8105C14.8946 23.2386 15.0665 23.653 15.2763 24.0489L14.2539 25.4081C14.0674 25.6559 14.0921 26.0031 14.3117 26.2227L16.1174 28.0265C16.3373 28.2457 16.6848 28.2701 16.9333 28.084L18.2938 27.0629C18.6903 27.272 19.1051 27.4438 19.5338 27.576L19.7728 29.2587C19.8167 29.566 20.0797 29.7939 20.3906 29.7939H22.9446C23.2551 29.7939 23.5182 29.566 23.562 29.2587L23.8011 27.576C24.2298 27.4438 24.6448 27.272 25.0414 27.0629L26.4019 28.084C26.65 28.2704 26.9979 28.2457 27.2174 28.0265L29.0235 26.2227C29.2431 26.0031 29.2674 25.6559 29.081 25.4081L28.0586 24.0489C28.2684 23.653 28.4402 23.2386 28.5724 22.8105L30.2573 22.5715C30.5649 22.528 30.7936 22.2649 30.7936 21.9548V19.4039C30.7936 19.0938 30.5649 18.8307 30.2573 18.7872L28.5724 18.5481C28.4402 18.1201 28.2684 17.7057 28.0586 17.3098L29.081 15.9506C29.2674 15.7028 29.2431 15.3556 29.0235 15.136ZM29.5464 19.9444V21.414L27.993 21.6345C27.7406 21.6702 27.5354 21.8557 27.4746 22.1032C27.3304 22.693 27.0972 23.2552 26.7819 23.7738C26.6494 23.9914 26.663 24.2675 26.8163 24.4711L27.7588 25.7241L26.7182 26.7631L25.4639 25.8219C25.26 25.6689 24.9836 25.655 24.7657 25.7875C24.2463 26.1022 23.6835 26.3351 23.0927 26.4796C22.8452 26.54 22.6595 26.7449 22.6234 26.997L22.4032 28.5484H20.9316L20.7111 26.997C20.6754 26.7449 20.4893 26.54 20.2418 26.4796C19.651 26.3351 19.0885 26.1022 18.5692 25.7875C18.3513 25.655 18.0749 25.6689 17.8709 25.8219L16.6166 26.7631L15.576 25.7238L16.5185 24.4711C16.6715 24.2675 16.6852 23.9914 16.553 23.7738C16.2376 23.2552 16.0044 22.693 15.8599 22.1029C15.7995 21.8557 15.5942 21.6699 15.3419 21.6342L13.7884 21.414V19.9444L15.3419 19.7242C15.5942 19.6884 15.7995 19.5027 15.8599 19.2555C16.0044 18.6654 16.2376 18.1035 16.553 17.5849C16.6852 17.3669 16.6715 17.0909 16.5185 16.8876L15.576 15.6346L16.6166 14.5953L17.8709 15.5368C18.0749 15.6894 18.3513 15.7034 18.5692 15.5712C19.0885 15.2562 19.651 15.0233 20.2418 14.8791C20.4893 14.8184 20.6751 14.6138 20.7111 14.3614L20.9316 12.81H22.4032L22.6234 14.3614C22.6595 14.6134 22.8452 14.8184 23.0927 14.8791C23.6835 15.0233 24.2463 15.2562 24.7657 15.5712C24.9836 15.7034 25.26 15.6894 25.4639 15.5368L26.7182 14.5953L27.7588 15.6346L26.8163 16.8876C26.663 17.0909 26.6494 17.3673 26.7819 17.5849C27.0972 18.1035 27.3301 18.6654 27.4746 19.2552C27.535 19.5027 27.7403 19.6884 27.9927 19.7242L29.5464 19.9444Z" fill="#0D4C39"></path><path d="M21.6673 4.91361C22.0119 4.91361 22.2908 4.63495 22.2908 4.29101V0.638216C22.2908 0.29395 22.0119 0.0152893 21.6673 0.0152893C21.323 0.0152893 21.0437 0.29395 21.0437 0.638216V4.29101C21.0437 4.63495 21.323 4.91361 21.6673 4.91361Z" fill="#0D4C39"></path><path d="M40.332 18.6573H36.6747C36.3301 18.6573 36.0511 18.9359 36.0511 19.2799C36.0511 19.6242 36.3301 19.9028 36.6747 19.9028H40.332C40.6763 19.9028 40.9556 19.6242 40.9556 19.2799C40.9556 18.9359 40.6763 18.6573 40.332 18.6573Z" fill="#0D4C39"></path><path d="M6.65987 18.6573H3.00253C2.65827 18.6573 2.37896 18.9359 2.37896 19.2799C2.37896 19.6242 2.65827 19.9028 3.00253 19.9028H6.65987C7.00414 19.9028 7.28345 19.6242 7.28345 19.2799C7.28345 18.9359 7.00446 18.6573 6.65987 18.6573Z" fill="#0D4C39"></path><path d="M10.6144 9.12143C10.8547 9.36145 11.2561 9.36145 11.4962 9.12143C11.7397 8.87817 11.7397 8.48389 11.4962 8.24063L8.91026 5.65766C8.66668 5.41473 8.27175 5.41473 8.02816 5.65766C7.78491 5.90092 7.78491 6.29521 8.02816 6.53879L10.6144 9.12143Z" fill="#0D4C39"></path><path d="M7.92106 13.2325L6.65734 12.7379C6.33646 12.6125 5.97498 12.7703 5.84929 13.0906C5.7236 13.4108 5.88177 13.7723 6.20233 13.8976L7.46637 14.3923C7.78303 14.516 8.15035 14.3556 8.27442 14.0396C8.40011 13.719 8.24194 13.3579 7.92106 13.2325Z" fill="#0D4C39"></path><path d="M15.6121 5.55113C15.7361 5.86714 16.1035 6.02758 16.4201 5.90384C16.7407 5.77847 16.8989 5.41699 16.7735 5.09676L16.2636 3.79764C16.1382 3.47709 15.7764 3.31925 15.4555 3.44461C15.135 3.5703 14.9768 3.93145 15.1025 4.25169L15.6121 5.55113Z" fill="#0D4C39"></path><path d="M26.9141 5.90383C27.2307 6.02757 27.5981 5.86713 27.7221 5.55112L28.232 4.252C28.3574 3.93145 28.1995 3.57029 27.8787 3.4446C27.5581 3.31956 27.1963 3.47708 27.0706 3.79731L26.561 5.09675C26.4353 5.41699 26.5935 5.77814 26.9141 5.90383Z" fill="#0D4C39"></path><path d="M32.2791 9.30396C32.4386 9.30396 32.5984 9.24323 32.7201 9.12143L35.306 6.53879C35.5496 6.29521 35.5496 5.90092 35.306 5.65766C35.0625 5.41473 34.6678 5.41473 34.4243 5.65766L31.838 8.24063C31.5945 8.48389 31.5945 8.87817 31.838 9.12143C31.9598 9.24323 32.1196 9.30396 32.2791 9.30396Z" fill="#0D4C39"></path><path d="M37.4852 13.0905C37.3595 12.77 36.9977 12.6125 36.6772 12.7378L35.4131 13.2325C35.0926 13.3578 34.9344 13.719 35.0601 14.0396C35.1841 14.3556 35.5515 14.516 35.8681 14.3923L37.1322 13.8976C37.4527 13.7723 37.6109 13.4108 37.4852 13.0905Z" fill="#0D4C39"></path><path d="M21.781 6.42998C19.1831 6.4079 16.6478 7.14775 14.4543 8.56866C14.1652 8.75605 14.083 9.14157 14.2704 9.43029C14.4575 9.7187 14.844 9.80087 15.1327 9.61379C17.0928 8.34456 19.3506 7.67519 21.6702 7.67519C21.7037 7.67519 21.7374 7.67519 21.7709 7.67551C24.9817 7.70247 27.9959 8.97138 30.2587 11.2494C32.5227 13.5284 33.7695 16.5517 33.7695 19.7625C33.7695 23.6891 31.8478 27.3854 28.6286 29.6504C27.5666 30.3974 26.8722 31.5419 26.6978 32.7933H24.5646C24.2201 32.7933 23.9411 33.0723 23.9411 33.4162C23.9411 33.7601 24.2201 34.0391 24.5646 34.0391H26.6546V37.233C26.6546 38.0222 26.0115 38.6643 25.2213 38.6643H18.1132C17.323 38.6643 16.68 38.0222 16.68 37.233V34.0391H22.0703C22.4149 34.0391 22.6939 33.7601 22.6939 33.4162C22.6939 33.0723 22.4149 32.7933 22.0703 32.7933H16.6358C16.4637 31.5403 15.7794 30.4019 14.73 29.6673C11.4959 27.4036 9.56505 23.7011 9.56505 19.7628C9.56505 16.4829 10.8811 13.4043 13.2711 11.0941C13.5186 10.8548 13.5251 10.4605 13.2854 10.2133C13.046 9.96618 12.6514 9.95968 12.4036 10.199C9.76901 12.746 8.31789 16.1425 8.31789 19.7628C8.31789 24.1067 10.4475 28.1908 14.0142 30.6874C14.9025 31.309 15.4328 32.3292 15.4328 33.4162V37.233C15.4328 38.5276 16.3578 39.6104 17.5822 39.8569C18.2597 41.5042 19.8531 42.5847 21.6673 42.5847C23.4815 42.5847 25.0749 41.5042 25.752 39.8569C26.9765 39.6104 27.9014 38.5276 27.9014 37.233V33.4178C27.9014 33.4172 27.9017 33.4169 27.9017 33.4162C27.9017 32.3324 28.4419 31.3055 29.347 30.6686C32.8969 28.1707 35.0164 24.0937 35.0164 19.7628C35.0164 16.2211 33.6412 12.8863 31.144 10.3722C28.6481 7.85966 25.323 6.45954 21.781 6.42998ZM21.6673 41.3392C20.5705 41.3392 19.5861 40.7893 19.0122 39.9098H24.3224C23.7485 40.7893 22.7641 41.3392 21.6673 41.3392Z" fill="#0D4C39"></path></g><defs><clipPath id="clip0_793_2892"><rect width="42.5694" height="42.5694" fill="white" transform="translate(0.383514 0.0152893)"></rect></clipPath></defs></svg>