<svg xmlns="http://www.w3.org/2000/svg" width="44" height="43" viewBox="0 0 44 43" fill="none"><g clip-path="url(#clip0_793_2864)"><path d="M11.0592 13.8171V17.6483C10.2227 17.9396 9.53387 18.5523 9.14667 19.3806L7.50359 22.9035C6.44392 25.1773 6.95567 27.8643 8.77726 29.5896L13.5535 34.1118V41.7533C13.5535 42.2125 13.9258 42.5847 14.385 42.5847H18.1264C18.5855 42.5847 18.9578 42.2125 18.9578 41.7533C18.9578 41.2941 18.5855 40.9219 18.1264 40.9219H15.2164V33.7541C15.2164 33.5257 15.1224 33.3073 14.9566 33.1504L9.92073 28.3822C8.61954 27.1497 8.25387 25.2303 9.01081 23.6062L10.6534 20.0841C11.0521 19.2314 12.0484 18.8983 12.8638 19.279L21.0772 23.1086C19.9261 24.6632 17.799 25.2501 15.9794 24.4019L13.7187 23.3477C13.3025 23.1534 12.8078 23.3337 12.6138 23.7498C12.4197 24.1659 12.5998 24.6606 13.0159 24.8547L15.2767 25.9091C16.2034 26.3411 17.2446 26.5334 18.32 26.4231C20.0744 28.3185 21.0364 30.7679 21.0364 33.3658C21.0364 33.825 21.4087 34.1972 21.8679 34.1972C22.327 34.1972 22.6993 33.825 22.6993 33.3658C22.6993 30.636 21.7855 28.0474 20.1037 25.9475C21.342 25.3967 22.3949 24.4148 23.0113 23.0932C23.0116 23.0925 23.0118 23.0918 23.0121 23.0912C23.4251 23.2753 23.8816 23.3786 24.3622 23.3786C25.1045 23.3786 25.7907 23.134 26.3447 22.7213C26.8787 23.846 28.0252 24.6258 29.3508 24.6258C29.8629 24.6258 30.3482 24.5092 30.7818 24.3016C30.5525 25.7942 30.181 27.1551 29.7959 28.5636C29.1684 30.8588 28.5193 33.2321 28.5193 36.2658V40.9219H25.6093C25.1502 40.9219 24.7779 41.2941 24.7779 41.7533C24.7779 42.2125 25.1502 42.5847 25.6093 42.5847H29.3508C29.8099 42.5847 30.1822 42.2125 30.1822 41.7533V36.2658C30.1822 33.4554 30.7737 31.2923 31.3999 29.0023C32.0275 26.7071 32.6765 24.3337 32.6765 21.3V16.3114C32.6765 14.4776 31.1846 12.9857 29.3508 12.9857C28.6085 12.9857 27.9222 13.2303 27.3682 13.643C26.8343 12.5182 25.6877 11.7385 24.3622 11.7385C23.6199 11.7385 22.9336 11.9831 22.3796 12.3958C21.8457 11.2711 20.6991 10.4914 19.3736 10.4914C18.381 10.4914 17.4891 10.929 16.8793 11.6209C16.2694 10.929 15.3775 10.4914 14.385 10.4914C12.5511 10.4914 11.0592 11.9833 11.0592 13.8171ZM27.6879 16.3114C27.6879 15.3945 28.4339 14.6485 29.3508 14.6485C30.2677 14.6485 31.0136 15.3945 31.0136 16.3114V21.3C31.0136 22.2169 30.2677 22.9629 29.3508 22.9629C28.4339 22.9629 27.6879 22.2169 27.6879 21.3V16.3114ZM22.6993 15.0643C22.6993 14.1473 23.4453 13.4014 24.3622 13.4014C25.2791 13.4014 26.025 14.1473 26.025 15.0643V20.0529C26.025 20.9698 25.2791 21.7157 24.3622 21.7157C23.4453 21.7157 22.6993 20.9698 22.6993 20.0529V15.0643ZM17.7107 13.8171C17.7107 12.9002 18.4567 12.1542 19.3736 12.1542C20.2905 12.1542 21.0364 12.9002 21.0364 13.8171V20.0529C21.0364 20.5264 21.1366 20.9769 21.3159 21.3851L17.7107 19.7042V13.8171ZM12.7221 13.8171C12.7221 12.9002 13.468 12.1542 14.385 12.1542C15.3019 12.1542 16.0478 12.9002 16.0478 13.8171V18.9289L13.5669 17.7722C13.2969 17.6461 13.0126 17.558 12.7221 17.5081V13.8171Z" fill="#0D4C39"></path><path d="M22.6989 3.83989V0.846724C22.6989 0.387523 22.3266 0.0152893 21.8675 0.0152893C21.4083 0.0152893 21.036 0.387523 21.036 0.846724V3.83989C21.036 4.29909 21.4083 4.67132 21.8675 4.67132C22.3266 4.67132 22.6989 4.29909 22.6989 3.83989Z" fill="#0D4C39"></path><path d="M14.8002 6.56539C15.1978 6.33583 15.3342 5.82741 15.1046 5.42965L13.8575 3.26875C13.6279 2.87099 13.1194 2.73464 12.7218 2.9642C12.3241 3.19376 12.1877 3.70218 12.4173 4.09994L13.6644 6.26084C13.8932 6.65735 14.4014 6.79561 14.8002 6.56539Z" fill="#0D4C39"></path><path d="M8.07554 10.6027L5.91464 9.35553C5.51655 9.12589 5.00829 9.26233 4.7789 9.66009C4.54934 10.0578 4.68569 10.5663 5.08337 10.7958L7.24427 12.043C7.64028 12.2715 8.14953 12.1379 8.38001 11.7384C8.60957 11.3407 8.47321 10.8322 8.07554 10.6027Z" fill="#0D4C39"></path><path d="M30.0705 6.26095L31.3176 4.10005C31.5472 3.70237 31.4108 3.19387 31.0132 2.96431C30.6151 2.73467 30.107 2.87119 29.8774 3.26886L28.6303 5.42976C28.4007 5.82744 28.5371 6.33594 28.9347 6.5655C29.3308 6.7939 29.8399 6.66037 30.0705 6.26095Z" fill="#0D4C39"></path><path d="M36.4906 12.0429L38.6515 10.7957C39.0492 10.5662 39.1856 10.0578 38.956 9.66001C38.7264 9.26233 38.218 9.12581 37.8203 9.35545L35.6594 10.6026C35.2617 10.8322 35.1253 11.3406 35.3549 11.7383C35.5837 12.1349 36.0919 12.2731 36.4906 12.0429Z" fill="#0D4C39"></path><path d="M21.8675 42.5847C22.3266 42.5847 22.6989 42.2125 22.6989 41.7533C22.6989 41.2941 22.3266 40.9218 21.8675 40.9218C21.4083 40.9218 21.036 41.2941 21.036 41.7533C21.036 42.2125 21.4083 42.5847 21.8675 42.5847Z" fill="#0D4C39"></path></g><defs><clipPath id="clip0_793_2864"><rect width="42.5694" height="42.5694" fill="white" transform="translate(0.582733 0.0152893)"></rect></clipPath></defs></svg>